<svg width="89" height="67" viewBox="0 0 89 67" fill="none" xmlns="http://www.w3.org/2000/svg">
<path d="M87.8932 42.5742C87.6297 41.8751 87.32 41.1925 86.9661 40.5304L70.5575 5.04793C70.4023 4.70618 70.18 4.39566 69.9026 4.13293C68.7302 3.01834 67.3383 2.13418 65.8064 1.53095C64.2745 0.927721 62.6326 0.617241 60.9744 0.617241C59.3162 0.617241 57.6742 0.927721 56.1423 1.53095C54.6104 2.13418 53.2185 3.01834 52.0461 4.13293C51.4563 4.69418 51.1244 5.45464 51.1229 6.24793V15.6229H38.4979V6.24793C38.4983 5.85385 38.4169 5.46357 38.2585 5.09938C38.1001 4.7352 37.8677 4.40424 37.5747 4.12543C36.4023 3.01084 35.0104 2.12668 33.4785 1.52345C31.9466 0.920221 30.3047 0.609741 28.6465 0.609741C26.9883 0.609741 25.3464 0.920221 23.8144 1.52345C22.2825 2.12668 20.8906 3.01084 19.7182 4.12543C19.4408 4.38816 19.2185 4.69868 19.0633 5.04043L2.65476 40.5229C2.30082 41.185 1.99115 41.8676 1.72761 42.5667C0.798492 45.0377 0.449013 47.6719 0.703657 50.2848C0.958301 52.8977 1.81091 55.4261 3.20176 57.6928C4.59261 59.9596 6.48805 61.9098 8.75532 63.4071C11.0226 64.9043 13.6068 65.9122 16.3271 66.3602C19.0473 66.8083 21.8377 66.6856 24.5027 66.0007C27.1678 65.3159 29.6431 64.0855 31.7553 62.3957C33.8674 60.7059 35.5653 58.5976 36.7301 56.2185C37.8948 53.8394 38.4982 51.247 38.4979 48.6229V21.6229H51.1229V48.6229C51.1215 51.2473 51.7239 53.8403 52.8879 56.2201C54.0518 58.5999 55.7492 60.709 57.8611 62.3996C59.9729 64.0902 62.4482 65.3214 65.1134 66.007C67.7786 66.6926 70.5693 66.8159 73.2899 66.3684C76.0105 65.9208 78.5953 64.9132 80.8631 63.4162C83.1309 61.9191 85.0268 59.9688 86.4181 57.7019C87.8094 55.4351 88.6623 52.9064 88.9171 50.2932C89.1719 47.68 88.8225 45.0455 87.8932 42.5742ZM24.5749 8.02918C25.6272 7.18701 26.9401 6.69463 28.3139 6.62694C29.6877 6.55924 31.0472 6.91995 32.1854 7.65418V35.2204C29.7212 33.1172 26.7187 31.6665 23.4788 31.0136C20.2389 30.3608 16.8754 30.5286 13.7253 31.5004L24.5749 8.02918ZM19.5604 60.6229C17.0634 60.6229 14.6225 59.9191 12.5464 58.6006C10.4702 57.282 8.85201 55.4078 7.89645 53.2151C6.94089 51.0224 6.69088 48.6096 7.17801 46.2818C7.66515 43.9541 8.86757 41.8159 10.6332 40.1377C12.3988 38.4594 14.6484 37.3165 17.0974 36.8535C19.5464 36.3905 22.0849 36.6281 24.3918 37.5364C26.6987 38.4446 28.6705 39.9827 30.0577 41.9561C31.445 43.9295 32.1854 46.2496 32.1854 48.6229C32.1854 51.8055 30.8553 54.8578 28.4877 57.1082C26.12 59.3587 22.9088 60.6229 19.5604 60.6229ZM57.4354 7.65043C58.5737 6.9162 59.9331 6.55549 61.3069 6.62318C62.6807 6.69088 63.9936 7.18326 65.0459 8.02543L75.8955 31.4929C72.7451 30.5216 69.3814 30.3544 66.1415 31.0079C62.9016 31.6614 59.8993 33.1129 57.4354 35.2167V7.65043ZM70.0604 60.6229C67.5634 60.6229 65.1225 59.9191 63.0464 58.6006C60.9702 57.282 59.352 55.4078 58.3964 53.2151C57.4409 51.0224 57.1909 48.6096 57.678 46.2818C58.1651 43.9541 59.3676 41.8159 61.1332 40.1377C62.8988 38.4594 65.1484 37.3165 67.5974 36.8535C70.0464 36.3905 72.5849 36.6281 74.8918 37.5364C77.1987 38.4446 79.1705 39.9827 80.5577 41.9561C81.945 43.9295 82.6854 46.2496 82.6854 48.6229C82.6854 51.8055 81.3553 54.8578 78.9876 57.1082C76.62 59.3587 73.4088 60.6229 70.0604 60.6229Z" fill="black"/>
</svg>
