<svg width="52" height="52" viewBox="0 0 52 52" fill="none" xmlns="http://www.w3.org/2000/svg">
<circle cx="26" cy="26" r="26" fill="#70A37F"/>
<path d="M38.865 36.5C36.9612 33.2088 34.0275 30.8488 30.6037 29.73C32.2973 28.7218 33.613 27.1856 34.349 25.3572C35.0849 23.5289 35.2004 21.5095 34.6775 19.6092C34.1547 17.7089 33.0226 16.0327 31.4549 14.8382C29.8873 13.6436 27.9709 12.9966 26 12.9966C24.0291 12.9966 22.1126 13.6436 20.545 14.8382C18.9774 16.0327 17.8452 17.7089 17.3224 19.6092C16.7996 21.5095 16.915 23.5289 17.651 25.3572C18.3869 27.1856 19.7027 28.7218 21.3962 29.73C17.9725 30.8475 15.0387 33.2075 13.135 36.5C13.0652 36.6138 13.0189 36.7405 12.9988 36.8725C12.9787 37.0045 12.9853 37.1392 13.0181 37.2687C13.051 37.3981 13.1094 37.5197 13.19 37.6262C13.2705 37.7327 13.3716 37.8219 13.4873 37.8887C13.6029 37.9555 13.7307 37.9985 13.8632 38.0151C13.9957 38.0316 14.1302 38.0215 14.2587 37.9853C14.3873 37.9491 14.5072 37.8875 14.6116 37.8041C14.7159 37.7208 14.8025 37.6174 14.8662 37.5C17.2212 33.43 21.3837 31 26 31C30.6162 31 34.7787 33.43 37.1337 37.5C37.1974 37.6174 37.284 37.7208 37.3884 37.8041C37.4927 37.8875 37.6127 37.9491 37.7412 37.9853C37.8697 38.0215 38.0042 38.0316 38.1367 38.0151C38.2692 37.9985 38.3971 37.9555 38.5127 37.8887C38.6283 37.8219 38.7294 37.7327 38.81 37.6262C38.8906 37.5197 38.949 37.3981 38.9818 37.2687C39.0147 37.1392 39.0212 37.0045 39.0012 36.8725C38.9811 36.7405 38.9348 36.6138 38.865 36.5ZM19 22C19 20.6155 19.4105 19.2622 20.1797 18.111C20.9489 16.9599 22.0421 16.0627 23.3212 15.5328C24.6003 15.003 26.0077 14.8644 27.3656 15.1345C28.7235 15.4046 29.9708 16.0713 30.9497 17.0503C31.9287 18.0292 32.5954 19.2765 32.8655 20.6344C33.1356 21.9922 32.9969 23.3997 32.4671 24.6788C31.9373 25.9579 31.0401 27.0511 29.889 27.8203C28.7378 28.5895 27.3844 29 26 29C24.1441 28.998 22.3647 28.2599 21.0524 26.9476C19.7401 25.6352 19.002 23.8559 19 22Z" fill="white"/>
</svg>
