<svg width="83" height="80" viewBox="0 0 83 80" fill="none" xmlns="http://www.w3.org/2000/svg">
<path d="M78.5347 23.185C82.9145 31.8918 83.7459 41.832 80.8685 51.0872C77.9912 60.3423 71.6089 68.2564 62.9536 73.3019C54.2983 78.3474 43.9834 80.1667 33.9999 78.4086C24.0163 76.6506 15.0717 71.4398 8.89248 63.7821C2.71322 56.1243 -0.262698 46.5623 0.539092 36.9416C1.34088 27.321 5.86354 18.3236 13.2342 11.686C20.6048 5.04846 30.301 1.24122 40.4512 0.999113C50.6015 0.757008 60.4863 4.0972 68.1979 10.375L77.142 1.87003C77.7342 1.30711 78.5375 0.99086 79.375 0.99086C80.2126 0.99086 81.0158 1.30711 81.6081 1.87003C82.2003 2.43295 82.533 3.19644 82.533 3.99253C82.533 4.78862 82.2003 5.55211 81.6081 6.11503L43.7331 42.115C43.1408 42.678 42.3376 42.9942 41.5 42.9942C40.6625 42.9942 39.8592 42.678 39.267 42.115C38.6747 41.5521 38.342 40.7886 38.342 39.9925C38.342 39.1964 38.6747 38.4329 39.267 37.87L50.2034 27.475C47.2395 25.6119 43.7007 24.754 40.1601 25.0403C36.6194 25.3267 33.284 26.7404 30.6939 29.0527C28.1037 31.3651 26.4104 34.4406 25.8881 37.7815C25.3657 41.1223 26.045 44.533 27.8158 47.4613C29.5866 50.3896 32.3453 52.6641 35.6454 53.9167C38.9454 55.1693 42.5937 55.3266 45.9995 54.3631C49.4054 53.3997 52.3694 51.3719 54.4119 48.608C56.4543 45.8441 57.4556 42.5059 57.2536 39.1338C57.2303 38.7398 57.2889 38.3453 57.426 37.9729C57.563 37.6004 57.776 37.2573 58.0525 36.963C58.3291 36.6688 58.664 36.4292 59.038 36.258C59.412 36.0867 59.8179 35.9872 60.2324 35.965C61.0694 35.9203 61.891 36.1934 62.5162 36.7244C62.8257 36.9873 63.0778 37.3056 63.258 37.6611C63.4381 38.0166 63.5428 38.4023 63.5661 38.7963C63.8539 43.5692 62.4197 48.2926 59.5005 52.1857C56.5813 56.0789 52.3519 58.9088 47.5113 60.2077C42.6708 61.5066 37.5089 61.1968 32.8787 59.3294C28.2485 57.462 24.4273 54.1489 22.0465 49.9376C19.6658 45.7263 18.8681 40.869 19.7852 36.1684C20.7024 31.4678 23.2795 27.2053 27.0907 24.0855C30.9018 20.9657 35.7189 19.1753 40.7456 19.0102C45.7724 18.8451 50.7079 20.3152 54.7365 23.1775L63.7121 14.6463C57.1345 9.45551 48.7711 6.75764 40.2283 7.07081C31.6854 7.38399 23.5655 10.6861 17.428 16.343C11.2906 21.9999 7.56838 29.6127 6.97633 37.7191C6.38428 45.8256 8.96413 53.8542 14.2204 60.2628C19.4766 66.6715 27.0386 71.0084 35.454 72.4405C43.8694 73.8726 52.5448 72.299 59.8139 68.0219C67.083 63.7447 72.4333 57.0657 74.8371 49.2676C77.241 41.4694 76.5289 33.102 72.8376 25.7725C72.4766 25.0545 72.4305 24.2295 72.7095 23.4791C72.9884 22.7287 73.5695 22.1144 74.325 21.7713C75.0805 21.4282 75.9484 21.3843 76.7379 21.6495C77.5274 21.9146 78.1737 22.467 78.5347 23.185Z" fill="black"/>
</svg>
